<?xml version="1.0" encoding="UTF-8"?>
<svg width="53px" height="53px" viewBox="0 0 53 53" version="1.1" xmlns="http://www.w3.org/2000/svg" xmlns:xlink="http://www.w3.org/1999/xlink">
    <!-- Generator: Sketch 64 (93537) - https://sketch.com -->
    <title>open-virus-icon_blanc3</title>
    <desc>Created with Sketch.</desc>
    <g id="Welcome--oscuro" stroke="none" stroke-width="1" fill="none" fill-rule="evenodd">
        <g id="paso-3_modo-oscuro" transform="translate(-813.000000, -397.000000)" fill="#FFFFFF" fill-rule="nonzero">
            <g id="Group-2" transform="translate(480.000000, 343.000000)">
                <g id="Group" transform="translate(94.000000, 54.000000)">
                    <g id="open-virus-icon_blanc3" transform="translate(239.000000, 0.000000)">
                        <path d="M26.5000719,0 C11.887837,0 0,11.8878048 0,26.5 C0,41.1121952 11.887837,53 26.5000719,53 C41.112163,53 53,41.1121952 53,26.5 C53,11.8878048 41.112163,0 26.5000719,0 Z M26.5000719,50.8429213 C13.0773973,50.8429213 2.1570846,39.9226382 2.1570846,26.5 C2.1570846,13.0773618 13.0773973,2.15707875 26.5000719,2.15707875 C39.9227465,2.15707875 50.8429154,13.0773618 50.8429154,26.5 C50.8429154,39.9226382 39.9227465,50.8429213 26.5000719,50.8429213 Z" id="Shape"></path>
                        <path d="M18.4067704,10.3960485 C20.2326206,10.0353857 21.2120067,10.4521024 22.3462058,10.9347562 C23.2899648,11.3364268 24.3272984,11.7779253 25.8077523,11.7777778 C26.317405,11.7777778 26.8797114,11.7254116 27.5085502,11.6012079 C29.9642408,11.1158989 31.080841,9.99909818 32.0659503,9.01387669 C32.9464677,8.132945 33.7070836,7.37238174 35.5327908,7.01142396 C36.1146991,6.89636591 36.4961518,6.31679782 36.3846921,5.71657829 C36.2730893,5.11635876 35.7097813,4.7228012 35.1287314,4.83830178 C32.6730408,5.32361077 31.5564406,6.44026397 30.5713314,7.42563297 C29.6906709,8.30641715 28.930198,9.06712792 27.1044909,9.4280857 C25.2787837,9.78874845 24.2993977,9.37203177 23.1650555,8.88937797 C21.8963607,8.34949017 20.4584017,7.7373223 18.002568,8.2229263 C17.4205165,8.33798436 17.039207,8.91755245 17.1506667,9.51777198 C17.2625556,10.1179915 17.824862,10.5111065 18.4067704,10.3960485 Z" id="Path"></path>
                        <path d="M41.0701864,39.5680003 C40.767042,39.0624526 40.112671,38.8977955 39.6072927,39.201579 C39.0295848,39.5486714 38.4380507,39.9259458 37.8117448,40.3254432 C32.5827613,43.6606524 26.0750612,47.8109809 16.1437275,42.3839144 C13.2295995,40.7917131 10.9150535,37.8512467 9.62663806,34.1043433 C8.39001925,30.5086598 8.23720887,26.5011787 9.20741552,23.1094301 C10.8842025,17.2468959 15.5374387,14.1020811 21.9678565,14.4812161 C28.7845823,14.8827807 32.7535251,18.0161222 32.8568088,23.0779044 C32.9509094,27.6822026 29.3600202,33.1828635 24.0568498,33.7140452 C20.8368946,34.037881 16.7102919,32.9828564 15.6729147,28.9517052 C15.0544505,26.5482088 15.9105395,23.3079901 19.2518351,21.8735205 C21.2608634,21.0108541 23.1755848,21.1514276 24.6426057,22.2696069 C25.9369025,23.256102 26.7071452,24.9317171 26.5156421,26.344584 C26.4224701,27.0324637 26.0547346,27.9553906 24.8331802,28.4448137 C24.0931693,28.7412584 23.1021202,29.0075211 22.5831221,28.5905554 C21.8520879,28.0035577 21.8854152,26.1476777 22.0160418,25.3390701 C22.1125156,24.757344 21.7202232,24.2073503 21.1396263,24.1106027 C20.5596484,24.0133382 20.0093866,24.4063238 19.9125001,24.9885667 C19.8496631,25.366668 19.3524361,28.7277179 21.2446641,30.2534569 C22.3055664,31.1093013 23.7793973,31.1677013 25.6250909,30.4281401 C27.2978538,29.7579354 28.3924962,28.3743203 28.6287797,26.6319327 C28.9233601,24.4589355 27.8402739,22.0226731 25.9340134,20.5697014 C23.8595686,18.9886633 21.1178552,18.7477245 18.4119454,19.9099364 C14.5584617,21.5642588 12.5831734,25.5017633 13.6081689,29.4849541 C14.4671469,32.822954 17.7735674,36.4903714 24.2690922,35.8398056 C27.2395568,35.5422239 30.0039699,33.9630463 32.0532387,31.3934458 C33.9781749,28.9795098 35.0481572,25.9327864 34.9889315,23.0340786 C34.9412621,20.7028328 33.8706608,13.0428186 22.0931177,12.3487371 C14.5748674,11.9057239 9.13291916,15.6137628 7.15721812,22.5211921 C4.78592287,30.8119264 8.35906509,40.563798 15.1224465,44.25933 C18.9142283,46.331135 22.3108286,47.1111111 25.3448525,47.1111111 C31.141845,47.1105943 35.6114198,44.2611905 38.9568425,42.1273678 C39.5708699,41.7359327 40.1508478,41.3658937 40.7044114,41.0331687 C41.209377,40.7296954 41.3730213,40.073548 41.0701864,39.5680003 Z" id="Path"></path>
                        <path d="M45.5050505,17.1313131 C45.5050505,15.0649912 43.8238976,13.3838384 41.7575758,13.3838384 C39.6912539,13.3838384 38.010101,15.0649912 38.010101,17.1313131 C38.010101,19.197635 39.6912539,20.8787879 41.7575758,20.8787879 C43.8238976,20.8787879 45.5050505,19.197635 45.5050505,17.1313131 Z M40.1515152,17.1313131 C40.1515152,16.245767 40.8720296,15.5252525 41.7575758,15.5252525 C42.6431219,15.5252525 43.3636364,16.245767 43.3636364,17.1313131 C43.3636364,18.0168593 42.6431219,18.7373737 41.7575758,18.7373737 C40.8720296,18.7373737 40.1515152,18.0168593 40.1515152,17.1313131 Z" id="Shape"></path>
                        <path d="M27.3030303,36.4040404 C25.2365657,36.4040404 23.5555556,38.0851933 23.5555556,40.1515152 C23.5555556,42.217837 25.2365657,43.8989899 27.3030303,43.8989899 C29.3694949,43.8989899 31.0505051,42.217837 31.0505051,40.1515152 C31.0505051,38.0851933 29.3693522,36.4040404 27.3030303,36.4040404 L27.3030303,36.4040404 Z M27.3030303,41.7575758 C26.4174842,41.7575758 25.6969697,41.0370613 25.6969697,40.1515152 C25.6969697,39.265969 26.4174842,38.5454545 27.3030303,38.5454545 C28.1885764,38.5454545 28.9090909,39.265969 28.9090909,40.1515152 C28.9090909,41.0370613 28.1885764,41.7575758 27.3030303,41.7575758 Z" id="Shape"></path>
                    </g>
                </g>
            </g>
        </g>
    </g>
</svg>