<?xml version="1.0" encoding="UTF-8"?>
<svg width="53px" height="53px" viewBox="0 0 53 53" version="1.1" xmlns="http://www.w3.org/2000/svg" xmlns:xlink="http://www.w3.org/1999/xlink">
    <!-- Generator: Sketch 64 (93537) - https://sketch.com -->
    <title>open-virus-icon_blanc</title>
    <desc>Created with Sketch.</desc>
    <g id="Welcome--oscuro" stroke="none" stroke-width="1" fill="none" fill-rule="evenodd">
        <g id="paso-2_modo-oscuro" transform="translate(-689.000000, -397.000000)" fill="#FFFFFF" fill-rule="nonzero">
            <g id="Group-2" transform="translate(480.000000, 343.000000)">
                <g id="contenido-entero" transform="translate(11.000000, 54.000000)">
                    <g id="Group" transform="translate(83.000000, 0.000000)">
                        <g id="open-virus-icon_blanc" transform="translate(115.000000, 0.000000)">
                            <path d="M26.5000719,0 C11.887837,0 0,11.8878048 0,26.5 C0,41.1121952 11.887837,53 26.5000719,53 C41.112163,53 53,41.1121952 53,26.5 C53,11.8878048 41.112163,0 26.5000719,0 Z M26.5000719,50.8429213 C13.0773973,50.8429213 2.1570846,39.9226382 2.1570846,26.5 C2.1570846,13.0773618 13.0773973,2.15707875 26.5000719,2.15707875 C39.9227465,2.15707875 50.8429154,13.0773618 50.8429154,26.5 C50.8429154,39.9226382 39.9227465,50.8429213 26.5000719,50.8429213 Z" id="Shape"></path>
                            <path d="M15.1946492,14.6788768 C17.0204994,14.318214 17.9998854,14.7349307 19.1340846,15.2175845 C20.0778435,15.6192551 21.1151772,16.0607535 22.5956311,16.0606061 C23.1052838,16.0606061 23.6675902,16.0082399 24.296429,15.8840362 C26.7521196,15.3987272 27.8687198,14.2819265 28.853829,13.296705 C29.7343464,12.4157733 30.4949624,11.65521 32.3206695,11.2942522 C32.9025779,11.1791942 33.2840305,10.5996261 33.1725708,9.99940657 C33.060968,9.39918704 32.4976601,9.00562948 31.9166102,9.12113007 C29.4609196,9.60643905 28.3443194,10.7230922 27.3592102,11.7084613 C26.4785497,12.5892454 25.7180768,13.3499562 23.8923697,13.710914 C22.0666625,14.0715767 21.0872765,13.6548601 19.9529343,13.1722063 C18.6842395,12.6323184 17.2462805,12.0201506 14.7904468,12.5057546 C14.2083953,12.6208126 13.8270858,13.2003807 13.9385455,13.8006003 C14.0504344,14.4008198 14.6127408,14.7939348 15.1946492,14.6788768 Z" id="Path"></path>
                            <path d="M24.1968524,40.213725 C21.7751643,39.9397246 20.7234864,38.9495677 19.5057158,37.8029385 C18.1917017,36.565764 16.7022622,35.1636328 13.5358543,34.805346 C12.9350622,34.7374717 12.3920161,35.146247 12.3208543,35.7183098 C12.2496925,36.2903727 12.6782673,36.8091654 13.2780386,36.8771787 C15.6995809,37.1511791 16.7514046,38.141336 17.9690295,39.2878261 C19.2830435,40.5250006 20.7724831,41.9271318 23.9390368,42.2855577 C23.9827838,42.2905648 24.0262391,42.2929293 24.069257,42.2929293 C24.6156571,42.2929293 25.0879788,41.9029307 25.153891,41.3725938 C25.2250528,40.8003919 24.7966238,40.2815992 24.1968524,40.213725 L24.1968524,40.213725 Z" id="Path"></path>
                            <path d="M40.7538661,28.411152 C38.3773566,28.2704829 37.2931773,27.3315659 36.038149,26.2442585 C34.6837436,25.0711738 33.1488077,23.7415562 30.040922,23.5575071 C29.4506388,23.52241 28.9463495,23.964914 28.9110407,24.5454196 C28.8757319,25.1259253 29.3242105,25.6247249 29.9129277,25.6595412 C32.2894372,25.8002103 33.3736165,26.7391273 34.6286448,27.8264347 C35.9830502,28.9995194 37.5179861,30.329137 40.6258717,30.5131861 C40.647655,30.5144496 40.6692959,30.5151515 40.6907944,30.5151515 C41.2513215,30.5151515 41.7215833,30.0842998 41.7556107,29.525414 C41.7910619,28.9449083 41.3425833,28.4459683 40.7538661,28.411152 Z" id="Path"></path>
                            <path d="M17.1313131,25.1616162 C17.1313131,23.0952943 15.4501603,21.4141414 13.3838384,21.4141414 C11.3175165,21.4141414 9.63636364,23.0952943 9.63636364,25.1616162 C9.63636364,27.227938 11.3175165,28.9090909 13.3838384,28.9090909 C15.4501603,28.9090909 17.1313131,27.227938 17.1313131,25.1616162 Z M11.7777778,25.1616162 C11.7777778,24.27607 12.4982923,23.5555556 13.3838384,23.5555556 C14.2693845,23.5555556 14.989899,24.27607 14.989899,25.1616162 C14.989899,26.0471623 14.2693845,26.7676768 13.3838384,26.7676768 C12.4982923,26.7676768 11.7777778,26.0471623 11.7777778,25.1616162 Z" id="Shape"></path>
                            <path d="M37.4747475,20.8787879 C39.5412121,20.8787879 41.2222222,19.197635 41.2222222,17.1313131 C41.2222222,15.0649912 39.5412121,13.3838384 37.4747475,13.3838384 C35.4082828,13.3838384 33.7272727,15.0649912 33.7272727,17.1313131 C33.7272727,19.197635 35.4082828,20.8787879 37.4747475,20.8787879 Z M37.4747475,15.5252525 C38.3602936,15.5252525 39.0808081,16.245767 39.0808081,17.1313131 C39.0808081,18.0168593 38.3602936,18.7373737 37.4747475,18.7373737 C36.5892013,18.7373737 35.8686869,18.0168593 35.8686869,17.1313131 C35.8686869,16.245767 36.5892013,15.5252525 37.4747475,15.5252525 Z" id="Shape"></path>
                            <path d="M29.979798,31.5858586 C27.9133333,31.5858586 26.2323232,33.2670114 26.2323232,35.3333333 C26.2323232,37.3996552 27.9133333,39.0808081 29.979798,39.0808081 C32.0462626,39.0808081 33.7272727,37.3996552 33.7272727,35.3333333 C33.7272727,33.2670114 32.0461199,31.5858586 29.979798,31.5858586 L29.979798,31.5858586 Z M29.979798,36.9393939 C29.0942519,36.9393939 28.3737374,36.2188795 28.3737374,35.3333333 C28.3737374,34.4477872 29.0942519,33.7272727 29.979798,33.7272727 C30.8653441,33.7272727 31.5858586,34.4477872 31.5858586,35.3333333 C31.5858586,36.2188795 30.8653441,36.9393939 29.979798,36.9393939 Z" id="Shape"></path>
                        </g>
                    </g>
                </g>
            </g>
        </g>
    </g>
</svg>