<?xml version="1.0" encoding="UTF-8"?>
<svg width="52px" height="53px" viewBox="0 0 52 53" version="1.1" xmlns="http://www.w3.org/2000/svg" xmlns:xlink="http://www.w3.org/1999/xlink">
    <!-- Generator: Sketch 64 (93537) - https://sketch.com -->
    <title>open-virus-icon</title>
    <desc>Created with Sketch.</desc>
    <g id="Welcome--oscuro" stroke="none" stroke-width="1" fill="none" fill-rule="evenodd">
        <g id="paso-1_modo-oscuro" transform="translate(-574.000000, -397.000000)" fill="#FFFFFF" fill-rule="nonzero">
            <g id="Group-2" transform="translate(480.000000, 343.000000)">
                <g id="contenido-entero" transform="translate(11.000000, 54.000000)">
                    <g id="Group" transform="translate(83.000000, 0.000000)">
                        <g id="open-virus-icon">
                            <path d="M48.0500315,24.6810176 C38.2878491,21.4313043 37.1444837,19.5046234 38.0472443,14.0953074 C38.56207,11.0098205 36.8651788,8.1367398 33.1395922,5.78711126 C30.4996839,4.1220528 27.7636998,3.29232111 27.6485332,3.25781803 C27.0807932,3.08716767 26.4835871,3.40940363 26.3135348,3.97564784 C26.1433788,4.54209928 26.4653264,5.13890928 27.0324439,5.30873074 C27.0578636,5.31629448 29.6001397,6.08717406 31.9947743,7.59753854 C34.974372,9.47697199 36.2990988,11.5445664 35.9321221,13.7434382 C35.3042049,17.5059315 35.7706814,19.822404 37.5420677,21.7387236 C39.4275831,23.7786533 42.8353723,25.2021903 47.3720013,26.7125547 C47.484574,26.749959 47.5988068,26.7676768 47.7112758,26.7676768 C48.1602179,26.7676768 48.5784489,26.4840884 48.7283729,26.0352375 C48.9152333,25.4743812 48.6117538,24.8681424 48.0500315,24.6810176 Z" id="Path"></path>
                            <path d="M47.7113402,0 C45.3466321,0 43.4226804,1.92133558 43.4226804,4.28282828 C43.4226804,6.64432099 45.3466321,8.56565657 47.7113402,8.56565657 C50.0760483,8.56565657 52,6.64432099 52,4.28282828 C51.9998962,1.92133558 50.0760483,0 47.7113402,0 Z M47.7113402,6.42424242 C46.5289343,6.42424242 45.5670103,5.46362644 45.5670103,4.28282828 C45.5670103,3.10213374 46.5289343,2.14141414 47.7113402,2.14141414 C48.8937461,2.14141414 49.8556701,3.10203012 49.8556701,4.28282828 C49.8555663,5.46352283 48.8936424,6.42424242 47.7113402,6.42424242 Z" id="Shape"></path>
                            <path d="M18.7628866,7.49494949 C16.3981785,7.49494949 14.4742268,9.41628507 14.4742268,11.7777778 C14.4742268,14.1392705 16.3981785,16.0606061 18.7628866,16.0606061 C21.1275947,16.0606061 23.0515464,14.1392705 23.0515464,11.7777778 C23.0515464,9.41628507 21.1276985,7.49494949 18.7628866,7.49494949 Z M18.7628866,13.9191919 C17.5805844,13.9191919 16.6185567,12.9585759 16.6185567,11.7777778 C16.6185567,10.5970832 17.5804807,9.63636364 18.7628866,9.63636364 C19.9452925,9.63636364 20.9072165,10.5969796 20.9072165,11.7777778 C20.9072165,12.9585759 19.9452925,13.9191919 18.7628866,13.9191919 Z" id="Shape"></path>
                            <path d="M40.2061856,34.2626263 C37.8414774,34.2626263 35.9175258,36.1839618 35.9175258,38.5454545 C35.9175258,40.9069472 37.8414774,42.8282828 40.2061856,42.8282828 C42.5708937,42.8282828 44.4948454,40.9069472 44.4948454,38.5454545 C44.4948454,36.1839618 42.5709974,34.2626263 40.2061856,34.2626263 Z M40.2061856,40.6868687 C39.0237796,40.6868687 38.0618557,39.7262527 38.0618557,38.5454545 C38.0618557,37.3646564 39.0237796,36.4040404 40.2061856,36.4040404 C41.3885915,36.4040404 42.3505155,37.3646564 42.3505155,38.5454545 C42.3505155,39.7262527 41.3885915,40.6868687 40.2061856,40.6868687 Z" id="Shape"></path>
                            <path d="M34.693118,45.4568892 C34.3895608,44.9513414 33.7342988,44.7866844 33.2282324,45.0904678 C32.6497379,45.4375603 32.0573984,45.8148347 31.4302397,46.2143321 C26.1941364,49.5495413 19.6775754,53.6998698 9.7327192,48.2728033 C6.81462323,46.6806019 4.49692579,43.7401356 3.20675603,39.9932322 C1.96845343,36.3975487 1.81543498,32.3900676 2.78696267,28.998319 C4.4660328,23.1357848 9.1256048,19.99097 15.5647783,20.3701049 C22.3907858,20.7716696 26.3651327,23.9050111 26.468557,28.9667933 C26.5627858,33.5710915 22.9670072,39.0717524 17.656616,39.6029341 C14.4322764,39.9267699 10.300055,38.8717453 9.26126532,34.840594 C8.64195904,32.4370977 9.49921366,29.196879 12.8450587,27.7624093 C14.8568226,26.899743 16.774151,27.0403165 18.2431695,28.1584958 C19.5392285,29.1449908 20.3105201,30.820606 20.1187562,32.2334728 C20.0254573,32.9213526 19.6572212,33.8442795 18.4340034,34.3337026 C17.692985,34.6301473 16.7005864,34.89641 16.1808816,34.4794442 C15.4488521,33.8924466 15.4822248,32.0365666 15.6130292,31.227959 C15.7096344,30.6462329 15.3168078,30.0962392 14.7354204,29.9994915 C14.1546528,29.9022271 13.6036418,30.2952127 13.5066233,30.8774556 C13.4437008,31.2555569 12.9457967,34.6166067 14.8406012,36.1423458 C15.902948,36.9981902 17.3787857,37.0565902 19.2269924,36.317029 C20.902033,35.6468243 21.9981658,34.2632092 22.234771,32.5208216 C22.5297525,30.3478243 21.4451917,27.9115619 19.5363355,26.4585903 C17.4590661,24.8775522 14.7136196,24.6366134 12.0040255,25.7988253 C8.14529483,27.4531477 6.16731695,31.3906522 7.1937081,35.373843 C8.05385571,38.7118429 11.3647783,42.3792603 17.8691473,41.7286945 C20.8436566,41.4311128 23.6118337,39.8519352 25.6638928,37.2823347 C27.59145,34.8683987 28.6628891,31.8216752 28.6035829,28.9229674 C28.5558486,26.5917217 27.4837895,18.9317075 15.69021,18.237626 C8.16172287,17.7946128 2.71236488,21.5026517 0.733973716,28.410081 C-1.64055029,36.7008153 1.93745712,46.4526869 8.7100476,50.1482189 C12.5069923,52.2200239 15.9082174,53 18.9463724,53 C24.7512581,52.9994831 29.2269187,50.1500794 32.5768966,48.0162567 C33.19176,47.6248216 33.7725276,47.2547826 34.3268449,46.9220576 C34.8324981,46.6185842 34.9963652,45.9624369 34.693118,45.4568892 Z" id="Path"></path>
                        </g>
                    </g>
                </g>
            </g>
        </g>
    </g>
</svg>